<?xml version="1.0" standalone="no"?>
<!DOCTYPE svg PUBLIC "-//W3C//DTD SVG 20010904//EN"
 "http://www.w3.org/TR/2001/REC-SVG-20010904/DTD/svg10.dtd">
<svg version="1.0" xmlns="http://www.w3.org/2000/svg"
 width="1772.000000pt" height="1772.000000pt" viewBox="0 0 1772.000000 1772.000000"
 preserveAspectRatio="xMidYMid meet">
<metadata>
Created by potrace 1.11, written by Peter Selinger 2001-2013
</metadata>
<g transform="translate(0.000000,1772.000000) scale(0.100000,-0.100000)"
fill="#000000" stroke="none">
<path d="M8739 16596 c-2 -2 -51 -6 -109 -10 -58 -3 -141 -8 -185 -12 -44 -3
-99 -7 -122 -7 -24 -1 -43 -4 -43 -7 0 -3 -15 -6 -32 -6 -48 -1 -217 -21 -263
-31 -11 -2 -38 -6 -60 -9 -70 -8 -99 -12 -125 -19 -14 -3 -41 -7 -60 -10 -19
-2 -69 -11 -110 -19 -41 -8 -87 -18 -102 -21 -61 -11 -185 -38 -233 -50 -11
-3 -32 -7 -47 -10 -15 -3 -37 -9 -50 -14 -13 -5 -27 -9 -33 -10 -25 -4 -65
-14 -129 -33 -38 -11 -77 -22 -87 -24 -11 -2 -27 -6 -36 -8 -21 -5 -121 -35
-143 -44 -22 -8 -21 -8 -72 -22 -27 -7 -48 -17 -48 -22 0 -5 -4 -7 -9 -4 -8 5
-50 -5 -96 -24 -44 -18 -277 -102 -288 -104 -7 -1 -32 -12 -56 -24 -25 -12
-49 -22 -54 -22 -5 0 -23 -6 -40 -14 -68 -31 -172 -77 -174 -77 -6 0 -128 -56
-218 -100 -55 -27 -104 -49 -108 -49 -5 0 -15 -7 -23 -15 -9 -8 -24 -15 -35
-15 -10 0 -19 -4 -19 -8 0 -4 -25 -19 -55 -32 -30 -13 -55 -29 -55 -34 0 -5
-3 -7 -6 -3 -3 3 -24 -5 -46 -19 -21 -14 -49 -29 -61 -34 -12 -5 -40 -21 -62
-35 -22 -14 -47 -28 -55 -32 -40 -18 -238 -139 -257 -156 -13 -11 -23 -17 -23
-13 0 4 -6 2 -12 -4 -26 -22 -149 -100 -157 -100 -5 0 -11 -4 -13 -8 -1 -5
-46 -37 -98 -72 -52 -35 -97 -66 -100 -70 -3 -3 -34 -26 -69 -51 -36 -24 -76
-54 -89 -66 -22 -20 -96 -59 -157 -83 -11 -4 -49 -19 -85 -34 -36 -14 -71 -26
-77 -26 -7 0 -13 -4 -13 -10 0 -5 -9 -10 -19 -10 -11 0 -23 -5 -26 -10 -4 -6
-11 -8 -16 -5 -5 4 -9 1 -9 -4 0 -6 -7 -11 -15 -11 -8 0 -23 -4 -33 -10 -27
-15 -147 -72 -150 -71 -7 3 -406 -203 -429 -222 -7 -5 -13 -7 -13 -3 0 3 -9
-2 -20 -11 -14 -13 -17 -20 -8 -30 6 -7 7 -13 2 -13 -4 0 -3 -5 4 -12 7 -7 12
-18 12 -24 0 -7 5 -25 11 -41 6 -15 10 -29 10 -30 0 -2 4 -16 9 -31 7 -27 2
-34 -88 -118 -135 -126 -422 -415 -422 -426 0 -4 -7 -8 -15 -8 -8 0 -15 -4
-15 -8 0 -4 -19 -28 -43 -53 -23 -25 -80 -88 -127 -139 -47 -52 -94 -104 -105
-116 -11 -12 -38 -43 -60 -70 -22 -26 -45 -52 -50 -58 -6 -6 -30 -36 -55 -66
-25 -30 -49 -60 -55 -66 -5 -6 -21 -26 -35 -44 -14 -19 -33 -42 -42 -51 -9
-10 -25 -30 -35 -46 -21 -32 -25 -38 -59 -78 -14 -16 -51 -66 -82 -110 -31
-44 -60 -81 -64 -83 -4 -2 -8 -10 -8 -18 0 -8 -4 -14 -9 -14 -5 0 -11 -8 -14
-17 -6 -16 -81 -128 -107 -160 -5 -7 -10 -15 -10 -18 0 -3 -20 -36 -44 -73
-56 -86 -95 -152 -103 -174 -3 -10 -10 -18 -15 -18 -5 0 -7 -4 -3 -9 3 -5 1
-12 -4 -15 -5 -4 -31 -48 -57 -99 -26 -50 -52 -95 -58 -99 -6 -4 -8 -8 -4 -8
4 0 -5 -26 -21 -57 -44 -88 -131 -278 -131 -287 0 -3 -12 -31 -26 -62 -14 -30
-26 -64 -27 -75 -1 -10 -5 -19 -9 -19 -4 0 -8 -7 -8 -15 0 -8 -4 -23 -10 -33
-11 -20 -60 -158 -65 -185 -2 -9 -7 -22 -10 -27 -3 -5 -8 -18 -10 -27 -3 -10
-14 -49 -25 -88 -11 -38 -22 -79 -25 -90 -2 -11 -7 -31 -10 -45 -3 -14 -8 -38
-11 -55 -3 -16 -10 -50 -15 -75 -6 -25 -12 -52 -14 -60 -1 -8 -6 -33 -10 -55
-4 -22 -9 -49 -11 -60 -1 -11 -5 -31 -8 -45 -6 -28 -23 -110 -31 -155 -3 -16
-8 -46 -11 -65 -2 -19 -6 -44 -8 -55 -2 -11 -7 -38 -11 -60 -4 -22 -9 -49 -11
-60 -2 -11 -6 -33 -10 -50 -12 -64 -26 -179 -27 -217 -1 -16 -4 -28 -7 -28 -4
0 -7 -6 -7 -12 0 -7 -3 -33 -7 -58 -3 -25 -9 -65 -12 -90 -3 -25 -9 -63 -13
-85 -4 -22 -7 -61 -7 -88 1 -26 -3 -47 -7 -47 -5 0 -5 -5 -2 -10 4 -6 8 -70
10 -143 2 -73 6 -148 8 -167 2 -19 8 -64 12 -100 4 -36 10 -72 15 -80 4 -8 5
-21 3 -28 -3 -7 1 -19 7 -27 7 -8 8 -15 3 -15 -5 0 -10 -12 -11 -27 -1 -15 -9
-68 -18 -118 -9 -49 -18 -103 -20 -120 -2 -16 -6 -52 -10 -80 -25 -192 -39
-542 -23 -562 7 -7 6 -13 0 -17 -5 -4 -7 -16 -5 -29 3 -12 7 -40 9 -62 6 -62
13 -125 20 -180 4 -27 9 -70 10 -95 2 -25 4 -45 5 -45 1 0 4 -27 7 -60 3 -33
8 -62 11 -65 4 -3 8 -21 8 -40 1 -35 11 -105 14 -105 2 0 9 -46 14 -100 2 -22
6 -47 9 -55 5 -15 11 -47 22 -125 4 -22 9 -51 11 -65 9 -44 15 -84 17 -112 1
-16 5 -28 9 -28 5 0 8 -11 8 -24 0 -25 18 -118 28 -146 3 -8 6 -24 8 -35 3
-23 5 -32 34 -145 12 -47 23 -92 25 -101 2 -9 10 -37 19 -62 8 -25 17 -56 20
-69 4 -22 28 -103 67 -223 11 -33 21 -67 23 -75 2 -8 9 -28 16 -45 6 -16 12
-32 12 -35 0 -3 4 -15 9 -28 5 -13 9 -29 9 -36 0 -7 3 -16 7 -20 4 -3 8 -12 9
-19 7 -35 58 -161 92 -227 53 -103 162 -282 183 -300 3 -3 18 -23 34 -45 16
-22 34 -44 39 -50 6 -5 27 -30 47 -55 20 -25 54 -63 75 -84 21 -22 40 -48 41
-58 5 -32 11 -63 13 -63 1 0 3 -13 5 -30 2 -16 7 -41 12 -55 4 -14 8 -29 9
-35 1 -5 3 -13 4 -17 3 -10 5 -16 15 -53 14 -55 46 -160 55 -180 5 -11 21 -51
36 -90 14 -38 37 -94 50 -123 13 -29 24 -57 24 -62 0 -6 4 -10 8 -10 4 0 14
-17 21 -37 7 -21 52 -96 99 -168 47 -71 85 -133 84 -137 -1 -5 1 -8 6 -8 4 0
16 -17 27 -37 11 -21 26 -42 33 -46 11 -7 11 -12 1 -24 -11 -12 -10 -14 5 -11
11 2 25 -7 35 -22 9 -13 11 -21 4 -16 -8 4 -13 2 -13 -7 0 -8 6 -17 13 -20 8
-3 22 -21 31 -41 9 -20 21 -36 26 -36 6 0 10 -5 10 -11 0 -10 76 -113 108
-147 6 -7 12 -16 12 -20 0 -4 14 -23 31 -42 16 -19 37 -47 47 -62 9 -16 20
-28 24 -28 4 0 8 -4 8 -10 0 -5 8 -18 17 -29 10 -10 28 -31 40 -47 75 -98 109
-139 115 -142 5 -2 8 -7 8 -12 0 -19 141 -166 234 -245 26 -22 54 -46 63 -54
8 -8 40 -34 71 -57 32 -24 62 -48 68 -53 33 -27 203 -141 212 -141 6 0 12 -4
14 -8 6 -15 277 -163 308 -168 8 -2 16 -8 18 -13 2 -6 11 -11 21 -11 9 0 26
-7 37 -15 12 -8 24 -11 28 -8 3 3 6 1 6 -5 0 -7 3 -11 8 -10 4 1 18 -4 32 -9
58 -25 86 -36 95 -38 6 -2 39 -14 75 -28 36 -14 74 -28 85 -33 11 -4 24 -6 29
-5 4 1 13 -2 20 -7 6 -5 25 -13 41 -17 17 -5 32 -9 35 -10 78 -24 97 -28 108
-26 6 1 12 -2 12 -8 0 -5 8 -8 18 -7 9 2 24 -1 32 -5 17 -9 136 -37 190 -45
41 -5 91 -29 165 -79 35 -23 46 -30 138 -85 38 -22 73 -40 78 -40 5 0 9 -4 9
-10 0 -5 7 -10 15 -10 8 0 15 -3 15 -8 0 -4 17 -15 38 -24 20 -10 69 -36 107
-57 108 -61 127 -71 142 -71 7 0 13 -4 13 -10 0 -5 5 -10 11 -10 6 0 24 -9 40
-21 16 -11 29 -18 29 -16 0 3 34 -12 75 -34 41 -21 75 -36 75 -32 0 3 8 -1 17
-9 10 -8 63 -34 118 -58 55 -23 109 -48 120 -53 11 -6 22 -12 25 -12 7 -2 60
-23 85 -34 61 -27 101 -43 211 -84 155 -59 389 -141 437 -153 4 -1 8 -2 10 -4
1 -1 9 -3 17 -5 29 -7 255 -73 270 -79 8 -3 26 -8 40 -10 14 -3 52 -12 84 -21
33 -8 69 -17 80 -20 12 -2 21 -4 21 -5 0 -1 10 -3 23 -6 47 -9 57 -11 72 -17
13 -4 87 -20 155 -32 11 -2 20 -4 20 -5 0 -1 11 -3 25 -6 30 -5 90 -16 110
-21 8 -2 29 -5 45 -7 31 -4 77 -12 130 -22 17 -3 44 -7 60 -9 17 -2 44 -5 60
-8 50 -9 108 -17 160 -22 28 -3 68 -8 90 -11 22 -3 60 -7 85 -9 25 -2 45 -4
45 -5 0 -3 126 -11 212 -13 46 -1 83 -5 83 -9 0 -9 897 -3 1015 6 148 12 157
13 230 20 39 4 97 11 129 16 32 5 63 7 67 4 5 -3 9 -2 9 3 0 4 15 9 33 9 17 1
52 5 77 8 25 4 62 8 82 9 21 1 38 4 38 7 0 3 12 7 27 8 16 1 66 9 113 18 80
14 99 18 160 28 14 3 25 5 25 6 0 2 14 5 60 13 62 12 90 18 107 23 10 3 30 7
45 10 16 3 46 10 68 16 22 5 47 12 55 13 37 9 177 46 242 66 39 11 79 22 89
24 11 2 23 6 27 9 5 3 19 7 33 10 13 3 44 13 69 22 25 9 52 17 60 19 8 2 44
13 80 25 74 25 81 27 95 29 6 1 20 9 33 17 12 8 22 13 22 10 0 -2 46 14 103
36 56 21 107 41 112 42 6 2 23 8 38 14 16 7 33 12 38 12 5 0 9 5 9 11 0 5 4 8
8 5 5 -3 20 1 35 9 14 7 28 11 31 7 3 -3 6 0 6 6 0 7 6 12 14 12 8 0 49 16 90
35 42 19 81 35 86 35 6 0 10 4 10 10 0 5 3 9 8 7 11 -3 95 35 104 48 4 5 8 7
8 3 0 -4 78 32 173 81 273 140 326 169 321 173 -2 3 14 11 36 18 22 7 40 16
40 19 0 4 13 15 30 24 16 10 30 15 30 12 0 -3 10 3 22 15 12 11 26 20 30 20 9
0 89 50 98 61 3 3 15 9 28 13 12 4 22 11 22 16 0 4 8 10 18 14 17 5 52 26 62
36 13 13 91 60 99 60 6 0 14 6 18 13 4 7 42 35 83 62 41 28 77 52 80 55 3 3
21 17 40 30 19 14 40 28 45 32 6 4 62 47 125 95 63 47 117 89 120 92 3 3 25
22 50 41 60 46 61 47 91 73 14 12 49 42 79 67 29 25 65 56 81 70 15 14 57 51
93 84 37 32 96 87 132 122 36 35 68 64 72 65 4 0 30 27 57 59 28 32 56 59 63
59 6 1 12 4 12 9 0 4 34 43 76 87 101 106 214 231 255 280 45 54 58 69 94 109
39 44 88 105 99 123 4 9 16 23 25 32 21 21 231 302 292 390 104 150 200 297
206 314 3 9 10 17 15 17 5 0 6 5 3 10 -3 6 -2 10 2 10 5 0 17 17 28 38 11 20
23 39 26 42 3 3 17 25 31 50 14 25 36 63 48 85 103 178 271 502 339 655 62
139 77 174 86 200 1 3 11 27 23 53 12 27 22 51 22 54 0 3 6 19 14 36 22 49 66
160 66 168 0 3 8 24 17 45 9 22 18 44 19 49 1 6 15 44 29 85 15 41 28 80 30
85 1 6 5 18 9 27 4 9 9 22 10 30 4 24 37 123 47 141 5 10 7 22 4 27 -4 6 -2
10 3 10 6 0 9 6 9 13 -2 11 26 111 40 147 3 8 7 24 8 35 2 11 10 46 19 76 9
31 19 67 22 80 3 13 6 29 8 34 2 6 6 28 10 50 4 22 11 51 16 65 5 14 12 41 15
60 3 19 14 73 24 119 11 46 17 90 14 97 -3 8 -1 14 4 14 6 0 10 16 11 35 1 20
6 52 11 73 6 20 12 53 15 72 5 44 16 116 22 155 10 66 33 252 35 290 1 22 5
44 8 49 2 6 6 35 7 65 2 31 6 85 8 121 21 260 25 1087 5 1125 -3 6 -5 45 -4
87 0 43 -3 78 -6 78 -3 0 -5 25 -5 56 1 34 -4 60 -12 66 -7 6 -12 27 -12 47 2
39 -37 338 -45 351 -3 4 -7 41 -10 81 -6 86 -18 169 -29 217 -12 45 -16 68
-22 101 -3 19 -13 64 -21 100 -8 36 -16 73 -17 81 -1 9 -5 20 -8 25 -3 6 -4
18 -3 28 2 9 -1 17 -7 17 -5 0 -8 6 -5 13 2 6 -2 28 -9 49 -7 20 -10 39 -7 42
4 3 1 6 -4 6 -6 0 -10 8 -8 18 1 9 0 22 -4 27 -3 6 -7 19 -9 30 -7 37 -8 40
-15 53 -5 6 -6 12 -3 12 3 0 -2 16 -10 35 -8 19 -12 35 -10 35 3 0 -2 19 -11
43 -8 23 -17 51 -18 62 -2 11 -31 101 -65 200 -34 99 -63 185 -64 190 -2 6 -8
24 -15 40 -6 17 -16 44 -22 60 -15 41 -24 65 -39 100 -8 17 -14 35 -15 40 -2
6 -11 28 -20 50 -10 22 -19 42 -20 45 -5 15 -27 68 -35 85 -37 81 -70 157 -70
161 0 19 -250 506 -316 615 -19 31 -34 59 -34 62 0 3 -14 26 -30 50 -17 25
-30 50 -30 56 0 6 -4 11 -9 11 -5 0 -11 6 -13 13 -7 30 -144 237 -156 237 -7
0 -11 4 -8 9 4 5 2 11 -2 13 -12 4 -72 95 -72 107 0 6 -4 11 -9 11 -4 0 -22
21 -39 48 -17 26 -37 56 -44 66 -7 11 -21 29 -31 40 -10 12 -28 39 -39 61 -21
40 -75 114 -93 127 -5 4 -7 8 -3 8 3 0 -6 15 -22 33 -15 17 -73 87 -127 154
-89 109 -185 220 -253 294 -137 149 -256 269 -266 269 -7 0 -48 34 -91 76 -43
42 -116 110 -162 153 -47 42 -94 85 -106 96 -12 11 -46 40 -76 65 -29 24 -63
54 -74 65 -11 11 -36 31 -55 45 -19 13 -37 27 -40 30 -10 11 -127 105 -150
120 -12 8 -30 22 -39 31 -17 16 -285 210 -336 243 -16 11 -36 26 -43 33 -7 7
-22 13 -33 13 -13 0 -18 4 -13 12 4 7 3 8 -5 4 -6 -4 -25 4 -42 18 -17 14 -34
26 -39 26 -5 0 -15 6 -22 14 -8 7 -29 21 -47 30 -17 9 -35 24 -38 32 -3 7 -11
14 -19 14 -8 0 -14 4 -14 8 0 5 -15 16 -32 25 -18 9 -55 30 -83 47 -27 16 -59
34 -70 39 -11 5 -37 21 -58 35 -21 14 -44 26 -52 26 -8 0 -15 3 -15 8 0 4 -10
12 -23 18 -68 32 -233 120 -238 127 -3 5 -9 8 -13 8 -9 -1 -100 43 -107 52 -3
5 -9 8 -13 8 -6 -1 -59 23 -173 76 -32 15 -60 27 -63 28 -9 3 -64 26 -95 40
-81 36 -190 81 -207 84 -5 1 -33 12 -64 26 -31 14 -60 25 -64 25 -4 0 -25 8
-46 17 -22 9 -45 18 -52 19 -8 1 -21 6 -30 10 -9 4 -23 8 -30 10 -8 1 -21 6
-30 10 -9 4 -19 8 -22 9 -3 0 -48 15 -100 32 -128 42 -257 82 -322 99 -5 1 -9
2 -10 4 -2 1 -12 3 -23 5 -28 5 -107 26 -125 33 -19 7 -18 6 -60 15 -49 10
-77 16 -97 22 -10 2 -48 11 -84 19 -36 8 -79 18 -95 22 -16 3 -40 8 -54 9 -14
2 -25 4 -25 5 0 2 -9 4 -20 6 -70 10 -102 16 -115 21 -8 3 -31 7 -50 9 -38 5
-75 11 -75 14 0 1 -16 4 -35 6 -53 5 -102 12 -130 17 -14 3 -50 8 -80 12 -30
3 -68 8 -85 11 -16 2 -55 6 -85 9 -30 2 -75 7 -100 10 -25 3 -81 7 -125 11
-44 3 -100 7 -125 10 -53 5 -836 14 -841 10z m-6803 -4619 c-20 -41 -36 -80
-36 -86 0 -6 -4 -11 -8 -11 -5 0 -9 -6 -9 -12 0 -7 -9 -33 -20 -58 -21 -48
-36 -82 -37 -90 -1 -3 -7 -15 -14 -27 -7 -13 -10 -23 -6 -23 3 0 2 -6 -3 -12
-5 -7 -19 -38 -31 -68 -55 -146 -85 -226 -87 -235 -1 -5 -5 -19 -9 -30 -5 -11
-12 -31 -16 -45 -4 -14 -11 -34 -16 -45 -9 -26 -15 -47 -16 -62 -1 -7 -4 -13
-8 -13 -4 0 -7 -6 -7 -12 0 -7 -15 -60 -33 -118 -18 -58 -34 -109 -35 -115 -1
-5 -6 -25 -10 -43 -4 -18 -12 -35 -16 -38 -5 -3 -7 -9 -4 -13 2 -5 0 -23 -6
-42 -5 -19 -12 -41 -14 -49 -1 -8 -8 -35 -15 -60 -7 -25 -14 -54 -17 -65 -2
-11 -7 -31 -10 -45 -3 -14 -7 -34 -8 -45 -2 -11 -4 -20 -5 -20 -3 0 -11 -39
-15 -65 -1 -14 -3 -25 -4 -25 -3 0 -10 -30 -16 -65 -3 -23 -33 -162 -39 -185
-2 -5 -18 -41 -35 -80 -18 -38 -34 -74 -35 -80 -1 -5 -12 -32 -25 -60 -12 -27
-24 -58 -26 -68 -2 -9 -7 -23 -12 -30 -4 -6 -8 -14 -8 -17 -1 -8 -24 -45 -25
-40 -1 3 -3 16 -6 30 -2 14 -7 32 -10 40 -4 8 -8 29 -9 47 -2 17 -5 35 -8 40
-3 5 -8 29 -11 53 -4 25 -9 56 -11 70 -12 63 -18 178 -18 320 l0 155 58 155
c32 85 62 158 67 161 5 3 8 10 7 15 -3 10 128 291 141 304 3 3 20 34 38 70 18
36 41 79 50 95 35 60 94 161 115 195 39 64 190 295 197 300 4 3 15 20 25 38
11 17 23 32 27 32 4 0 8 5 8 11 0 7 16 32 36 55 19 24 33 44 30 44 -2 0 5 11
17 24 12 14 23 23 25 21 2 -1 -13 -37 -32 -78z m-561 -4637 c-2 -16 1 -32 6
-36 6 -3 9 -18 8 -32 -2 -15 0 -32 3 -38 4 -6 9 -21 11 -35 3 -13 8 -42 12
-64 4 -22 10 -44 13 -50 3 -5 6 -21 7 -35 1 -14 4 -32 7 -40 4 -8 9 -28 12
-45 12 -58 17 -80 23 -100 4 -11 8 -23 9 -27 1 -5 3 -10 4 -13 1 -3 3 -13 5
-22 1 -10 5 -25 8 -33 4 -8 8 -26 9 -40 2 -14 7 -31 12 -38 4 -7 9 -23 11 -35
6 -36 22 -94 29 -106 18 -28 -15 -7 -47 32 -19 23 -50 59 -69 81 -18 21 -58
73 -89 117 l-57 78 3 68 c1 37 4 68 5 68 1 0 3 20 5 45 7 77 14 134 19 160 3
14 9 45 12 70 9 63 12 79 19 90 11 17 14 11 10 -20z m1094 -2776 c6 -14 15
-30 21 -37 18 -22 80 -119 80 -126 0 -3 11 -18 25 -33 14 -15 25 -31 25 -36 0
-5 9 -17 20 -27 11 -10 20 -24 20 -32 0 -7 4 -13 8 -13 4 0 31 -35 60 -77 28
-43 61 -90 74 -105 13 -14 30 -36 38 -48 24 -35 54 -72 73 -92 9 -10 17 -21
17 -25 0 -5 12 -22 28 -38 15 -17 43 -50 63 -75 20 -25 45 -55 55 -66 11 -12
30 -35 43 -52 13 -17 40 -49 60 -70 20 -22 67 -75 106 -118 38 -43 161 -171
274 -283 126 -127 195 -202 180 -197 -13 3 -36 9 -51 12 -16 4 -28 10 -28 15
0 5 -3 8 -7 7 -5 -1 -24 4 -43 11 -19 8 -37 15 -40 16 -3 0 -22 9 -44 18 -21
9 -40 17 -42 17 -3 0 -36 15 -74 34 -37 19 -71 32 -74 28 -3 -3 -6 0 -6 7 0 7
-4 9 -10 6 -5 -3 -10 -2 -10 2 0 5 -29 22 -65 38 -36 17 -65 33 -65 38 0 4 -5
7 -11 7 -6 0 -24 9 -40 21 -16 11 -29 17 -29 12 0 -4 -4 -3 -8 2 -6 8 -169
121 -231 160 -9 6 -18 12 -21 16 -3 3 -38 31 -77 63 -61 49 -78 69 -107 130
-44 91 -76 166 -76 177 0 4 -5 20 -12 36 -6 15 -12 33 -14 38 -46 156 -65 232
-67 273 0 12 -5 22 -9 22 -4 0 -7 3 -6 8 2 6 -6 83 -18 167 -2 17 -6 65 -8
107 -2 43 -7 82 -11 88 -3 5 0 7 8 4 8 -3 19 -16 26 -30z"/>
<path d="M2400 3901 c0 -5 5 -13 10 -16 6 -3 10 -2 10 4 0 5 -4 13 -10 16 -5
3 -10 2 -10 -4z"/>
</g>
</svg>
